<svg width="512" height="512" viewBox="0 0 512 512" fill="none" xmlns="http://www.w3.org/2000/svg">
<g clip-path="url(#clip0_17477_62636)">
<rect width="512" height="512" rx="90" fill="url(#paint0_radial_17477_62636)"/>
<path fill-rule="evenodd" clip-rule="evenodd" d="M95.0142 185.269L111.683 180.802C152.426 169.885 193.673 174.506 229.136 191.033C204.257 182.651 176.719 181.262 149.463 188.566L132.795 193.032C59.1494 212.765 15.4505 288.483 35.1903 362.153C54.9301 435.823 130.633 479.547 204.279 459.814L220.947 455.348C292.039 436.299 335.225 365.08 320.377 293.895C321.34 296.848 322.23 299.843 323.043 302.879C347.718 394.966 293.094 489.614 201.038 514.28L184.369 518.747C92.313 543.413 -2.31632 488.758 -26.9911 396.67C-51.6658 304.583 2.95784 209.935 95.0142 185.269ZM-43.6594 401.137C-70.8016 299.84 -10.7156 195.728 90.5465 168.595L107.215 164.129C208.477 136.995 312.569 197.117 339.711 298.413C366.854 399.709 306.767 503.821 205.505 530.954L188.837 535.421C87.5751 562.554 -16.5171 502.433 -43.6594 401.137ZM237.757 263.043C236.832 266.496 238.866 270.02 242.934 277.067C247.002 284.115 249.036 287.639 252.488 288.564C255.941 289.49 259.463 287.456 266.508 283.388C273.552 279.32 277.075 277.286 277.999 273.832C278.924 270.379 276.89 266.855 272.822 259.808C268.754 252.761 266.72 249.237 263.268 248.312C259.815 247.386 256.293 249.42 249.248 253.488C242.204 257.556 238.681 259.59 237.757 263.043ZM138.441 337.408C134.373 330.361 132.339 326.837 133.264 323.384C134.189 319.931 137.711 317.897 144.756 313.829L144.756 313.829C151.8 309.761 155.323 307.727 158.775 308.653C162.227 309.578 164.261 313.102 168.329 320.149C172.397 327.197 174.431 330.72 173.507 334.173C172.582 337.627 169.06 339.661 162.015 343.729C154.97 347.797 151.448 349.831 147.996 348.905C144.543 347.979 142.509 344.456 138.441 337.408Z" fill="#F9F9F9"/>
<path d="M471 256C431.282 256 424 290 424 330C424 290 416.718 256 377 256C416.718 256 424 222 424 182C424 222 431.282 256 471 256Z" fill="#F9F9F9"/>
<path d="M377 115C342.775 115 336.5 143.946 336.5 178C336.5 143.946 330.225 115 296 115C330.225 115 336.5 86.0541 336.5 52C336.5 86.0541 342.775 115 377 115Z" fill="#F9F9F9"/>
</g>
<defs>
<radialGradient id="paint0_radial_17477_62636" cx="0" cy="0" r="1" gradientUnits="userSpaceOnUse" gradientTransform="translate(55.2421 51.2) rotate(66.4586) scale(502.633)">
<stop stop-color="#020136"/>
<stop offset="1" stop-color="#2D2B6F"/>
</radialGradient>
<clipPath id="clip0_17477_62636">
<rect width="512" height="512" rx="90" fill="white"/>
</clipPath>
</defs>
</svg>
