<svg width="126" height="32" viewBox="0 0 126 32" fill="none" xmlns="http://www.w3.org/2000/svg">
<g clip-path="url(#clip0_2271_2071)">
<path fill-rule="evenodd" clip-rule="evenodd" d="M12.8169 4.62377L13.9829 4.31296C16.8259 3.55515 19.7039 3.87319 22.1805 5.01626C20.445 4.43841 18.5254 4.34422 16.6254 4.85067L15.4594 5.16148C10.3076 6.53473 7.25065 11.804 8.63154 16.9308C10.0124 22.0575 15.3082 25.1003 20.46 23.7271L21.626 23.4163C26.598 22.091 29.6188 17.137 28.5824 12.1844C28.6496 12.3895 28.7117 12.5975 28.7685 12.8084C30.4946 19.2168 26.6734 25.8034 20.2337 27.52L19.0677 27.8308C12.6279 29.5474 6.00816 25.7438 4.28205 19.3354C2.55594 12.927 6.37711 6.34033 12.8169 4.62377ZM3.11603 19.6462C1.21731 12.5969 5.4206 5.35164 12.5043 3.46342L13.6704 3.15261C20.7541 1.2644 28.0358 5.44827 29.9345 12.4976C31.8333 19.5468 27.63 26.7921 20.5462 28.6803L19.3802 28.9912C12.2965 30.8794 5.01475 26.6955 3.11603 19.6462ZM22.802 10.0336C22.7373 10.2739 22.8796 10.5192 23.1641 11.0096C23.4487 11.5 23.591 11.7452 23.8325 11.8096C24.074 11.8741 24.3204 11.7325 24.8132 11.4494C25.306 11.1663 25.5524 11.0248 25.6171 10.7845C25.6818 10.5442 25.5395 10.2989 25.2549 9.8085C24.9704 9.31807 24.8281 9.07285 24.5866 9.00844C24.3451 8.94403 24.0987 9.08558 23.6059 9.36867C23.1131 9.65177 22.8667 9.79332 22.802 10.0336ZM15.8544 15.2088C15.5698 14.7183 15.4275 14.4731 15.4922 14.2328C15.5569 13.9925 15.8033 13.8509 16.2961 13.5679C16.7889 13.2848 17.0353 13.1432 17.2768 13.2076C17.5183 13.272 17.6606 13.5173 17.9452 14.0077C18.2298 14.4981 18.3721 14.7433 18.3074 14.9836C18.2427 15.224 17.9963 15.3655 17.5035 15.6486C17.0107 15.9317 16.7643 16.0732 16.5228 16.0088C16.2813 15.9444 16.139 15.6992 15.8544 15.2088Z" fill="#060708"/>
<path d="M120.003 4.61448C120.003 4.10468 120.418 3.69141 120.931 3.69141H122.163C122.676 3.69141 123.091 4.10468 123.091 4.61448V24.9222C123.091 25.432 122.676 25.8453 122.163 25.8453H120.931C120.418 25.8453 120.003 25.432 120.003 24.9222V23.6742C119.518 24.4422 118.885 25.0625 118.103 25.5351C117.321 25.9979 116.405 26.2293 115.356 26.2293C114.277 26.2293 113.268 26.0274 112.327 25.6237C111.387 25.22 110.556 24.6637 109.833 23.9548C109.121 23.236 108.561 22.4089 108.156 21.4736C107.75 20.5382 107.547 19.5339 107.547 18.4606C107.547 17.3874 107.75 16.3831 108.156 15.4477C108.561 14.5025 109.121 13.6754 109.833 12.9665C110.556 12.2477 111.387 11.6865 112.327 11.2828C113.268 10.8791 114.277 10.6773 115.356 10.6773C116.405 10.6773 117.321 10.9136 118.103 11.3862C118.885 11.8489 119.518 12.4594 120.003 13.2176V4.61448ZM115.386 23.2606C116.257 23.2606 117.019 23.0489 117.672 22.6256C118.325 22.1923 118.83 21.6114 119.186 20.8828C119.553 20.1542 119.736 19.3468 119.736 18.4606C119.736 17.5646 119.553 16.7523 119.186 16.0237C118.82 15.2951 118.311 14.7191 117.657 14.2957C117.014 13.8625 116.257 13.6459 115.386 13.6459C114.525 13.6459 113.738 13.8625 113.025 14.2957C112.322 14.7289 111.758 15.3099 111.333 16.0385C110.917 16.7671 110.709 17.5745 110.709 18.4606C110.709 19.3566 110.922 20.1689 111.348 20.8976C111.783 21.6163 112.352 22.1923 113.055 22.6256C113.768 23.0489 114.544 23.2606 115.386 23.2606Z" fill="#060708"/>
<path d="M102.797 12.0012C102.797 11.4914 103.212 11.0781 103.725 11.0781H104.957C105.469 11.0781 105.885 11.4914 105.885 12.0012V24.9243C105.885 25.4341 105.469 25.8474 104.957 25.8474H103.725C103.212 25.8474 102.797 25.4341 102.797 24.9243V12.0012Z" fill="#060708"/>
<path d="M91.5362 25.2377C91.4029 25.6027 91.0543 25.8456 90.6641 25.8456H87.9997C87.6098 25.8456 87.2614 25.603 87.1279 25.2385L82.385 12.2859C82.1645 11.6838 82.6127 11.0469 83.2568 11.0469H84.5764C84.967 11.0469 85.3158 11.2902 85.4488 11.6556L89.3248 22.301L93.2152 11.6546C93.3485 11.2898 93.697 11.0469 94.0872 11.0469H95.394C96.0378 11.0469 96.4859 11.6832 96.2661 12.2851L91.5362 25.2377Z" fill="#060708"/>
<path d="M78.1261 12.0567C78.0937 11.5259 78.5177 11.0776 79.0523 11.0776H80.2264C80.7389 11.0776 81.1543 11.4909 81.1543 12.0007V24.9238C81.1543 25.4336 80.7389 25.8468 80.2264 25.8468H78.9296C78.4369 25.8468 78.0302 25.4639 78.0031 24.9746L77.9327 23.7053C77.4972 24.4635 76.9083 25.0739 76.1659 25.5367C75.4236 25.9994 74.5477 26.2308 73.5381 26.2308C72.4494 26.2308 71.425 26.029 70.4649 25.6253C69.5049 25.2118 68.6586 24.6407 67.9262 23.9121C67.2037 23.1834 66.6395 22.3465 66.2337 21.4013C65.8279 20.4462 65.625 19.4222 65.625 18.3293C65.625 17.2758 65.823 16.2862 66.2189 15.3607C66.6148 14.4253 67.1641 13.6081 67.8668 12.909C68.5695 12.2099 69.3811 11.6634 70.3016 11.2696C71.232 10.8659 72.2267 10.6641 73.2857 10.6641C74.3646 10.6641 75.3147 10.9102 76.1362 11.4025C76.9676 11.885 77.6555 12.5053 78.1999 13.2634L78.1261 12.0567ZM73.4639 23.2622C74.3349 23.2622 75.097 23.0505 75.7502 22.6271C76.4035 22.1939 76.9083 21.613 77.2646 20.8844C77.6308 20.1558 77.8139 19.3484 77.8139 18.4622C77.8139 17.5662 77.6308 16.7539 77.2646 16.0253C76.8984 15.2967 76.3886 14.7207 75.7354 14.2973C75.0921 13.8641 74.3349 13.6474 73.4639 13.6474C72.6028 13.6474 71.8159 13.8641 71.1033 14.2973C70.3907 14.7305 69.8265 15.3114 69.4108 16.0401C68.9951 16.7687 68.7873 17.5761 68.7873 18.4622C68.7873 19.3582 69.0001 20.1705 69.4257 20.8991C69.8612 21.6179 70.4303 22.1939 71.133 22.6271C71.8456 23.0505 72.6226 23.2622 73.4639 23.2622Z" fill="#060708"/>
<path d="M57.7905 25.8468C57.4488 25.8468 57.1719 25.5713 57.1719 25.2314V12.0007C57.1719 11.4909 57.5873 11.0776 58.0998 11.0776H59.332C59.8445 11.0776 60.2599 11.4909 60.2599 12.0007V12.6431C60.7746 12.0327 61.408 11.5502 62.1603 11.1958C62.9125 10.8413 63.7241 10.6641 64.5951 10.6641C64.806 10.6641 65.0162 10.6748 65.2257 10.6961C65.7756 10.7523 66.0654 11.3328 65.8622 11.8442L65.3487 13.1366C65.1616 13.6076 64.6261 13.8219 64.119 13.7773C64.0302 13.7695 63.9415 13.7656 63.8528 13.7656C63.1995 13.7656 62.6007 13.9281 62.0563 14.253C61.512 14.5681 61.0765 14.9964 60.7499 15.5379C60.4232 16.0794 60.2599 16.6801 60.2599 17.3398V25.2314C60.2599 25.5713 59.983 25.8468 59.6413 25.8468H57.7905Z" fill="#060708"/>
<path d="M44.8698 26.2309C43.4247 26.2309 42.0787 25.9552 40.8316 25.4039C39.5944 24.8426 38.5106 24.0697 37.5802 23.0851C36.6597 22.0906 35.9372 20.9436 35.4126 19.6439C34.898 18.3442 34.6406 16.9608 34.6406 15.4937C34.6406 13.9479 34.9178 12.5251 35.472 11.2254C36.0263 9.9257 36.7835 8.79832 37.7435 7.84324C38.7036 6.87832 39.7973 6.13001 41.0246 5.59832C42.2618 5.06663 43.5584 4.80078 44.9143 4.80078C46.4485 4.80078 47.9232 5.15524 49.3386 5.86417C50.4644 6.42809 51.4744 7.21631 52.3686 8.22882C52.7401 8.64949 52.5943 9.29254 52.0997 9.55975L51.1836 10.0546C50.6571 10.339 50.0094 10.198 49.5775 9.78492C49.0348 9.26587 48.4355 8.85003 47.7797 8.5374C46.8394 8.08447 45.8744 7.85801 44.8846 7.85801C43.9246 7.85801 43.014 8.05493 42.1529 8.44878C41.2918 8.83278 40.5297 9.37432 39.8666 10.0734C39.2034 10.7626 38.6788 11.5749 38.2928 12.5103C37.9167 13.4359 37.7287 14.4451 37.7287 15.538C37.7287 16.5916 37.9118 17.5811 38.278 18.5066C38.6541 19.4322 39.1688 20.2445 39.822 20.9436C40.4852 21.6328 41.2473 22.1743 42.1084 22.5682C42.9794 22.962 43.9097 23.1589 44.8995 23.1589C45.6319 23.1589 46.3346 23.0408 47.0077 22.8045C47.6807 22.5682 48.3043 22.2334 48.8783 21.8002C49.4623 21.3571 49.972 20.8303 50.4075 20.2199C50.843 19.6094 51.1894 18.93 51.4467 18.1817H47.9653C47.4528 18.1817 47.0374 17.7684 47.0374 17.2586V16.3872C47.0374 15.8774 47.4528 15.4642 47.9653 15.4642H53.8485C54.5253 15.4642 55.0845 16.0067 55.0214 16.6771C54.9243 17.7073 54.6829 18.6912 54.2973 19.6291C53.7727 20.9288 53.0403 22.0759 52.1 23.0703C51.1696 24.0549 50.0858 24.8279 48.8486 25.3891C47.6114 25.9503 46.2851 26.2309 44.8698 26.2309Z" fill="#060708"/>
<path d="M96.781 24.3086C96.7811 23.5831 96.7812 23.2203 97.0077 22.9949C97.2343 22.7695 97.5988 22.7695 98.3279 22.7695C99.057 22.7695 99.4215 22.7695 99.648 22.9949C99.8745 23.2203 99.8744 23.5831 99.8743 24.3086C99.8742 25.0341 99.8741 25.3969 99.6476 25.6222C99.421 25.8476 99.0565 25.8476 98.3274 25.8476C97.5983 25.8476 97.2337 25.8476 97.0073 25.6222C96.7808 25.3969 96.7809 25.0341 96.781 24.3086Z" fill="#060708"/>
<path d="M102.812 7.32421C102.812 6.59869 102.812 6.23593 103.039 6.01055C103.266 5.78516 103.63 5.78516 104.359 5.78516C105.088 5.78516 105.453 5.78516 105.679 6.01055C105.906 6.23593 105.906 6.59869 105.906 7.32421C105.905 8.04973 105.905 8.41248 105.679 8.63787C105.452 8.86326 105.088 8.86326 104.359 8.86326C103.63 8.86326 103.265 8.86326 103.039 8.63787C102.812 8.41248 102.812 8.04973 102.812 7.32421Z" fill="#060708"/>
</g>
<defs>
<clipPath id="clip0_2271_2071">
<rect width="125.576" height="32" fill="white"/>
</clipPath>
</defs>
</svg>
