<svg width="16" height="12" viewBox="0 0 16 12" fill="none" xmlns="http://www.w3.org/2000/svg">
<path d="M13.545 0.991917C12.525 0.533481 11.4317 0.194636 10.2883 0.00196009C10.2781 1.20136e-05 10.2676 0.00126743 10.2582 0.00555273C10.2487 0.00983803 10.2409 0.0169412 10.2357 0.0258785C10.0957 0.271042 9.93966 0.590619 9.83032 0.843092C8.61772 0.662532 7.38493 0.662532 6.17232 0.843092C6.05055 0.563286 5.91322 0.290459 5.76099 0.0258785C5.75583 0.0168312 5.74802 0.00956732 5.73861 0.00505629C5.7292 0.00054525 5.71864 -0.000998471 5.70832 0.000631229C4.56566 0.193307 3.47232 0.532152 2.45165 0.991253C2.44287 0.994923 2.43543 1.00118 2.43032 1.00919C0.355654 4.04883 -0.213013 7.01338 0.0663204 9.94073C0.0670977 9.9479 0.0693308 9.95484 0.0728837 9.96112C0.0764367 9.9674 0.0812351 9.9729 0.0869871 9.97727C1.29792 10.8559 2.64855 11.5252 4.08232 11.9572C4.09232 11.9603 4.10301 11.9602 4.113 11.9572C4.12299 11.9541 4.13181 11.9481 4.13832 11.9399C4.44685 11.5287 4.72025 11.0924 4.95566 10.6357C4.95892 10.6294 4.96081 10.6226 4.96118 10.6155C4.96155 10.6085 4.9604 10.6015 4.95781 10.5949C4.95522 10.5884 4.95124 10.5825 4.94616 10.5776C4.94107 10.5727 4.93499 10.5689 4.92832 10.5666C4.49766 10.405 4.08038 10.2099 3.68032 9.98325C3.67313 9.97916 3.66708 9.97336 3.66269 9.96636C3.65831 9.95936 3.65574 9.95139 3.65521 9.94316C3.65468 9.93493 3.65621 9.92669 3.65966 9.9192C3.66312 9.9117 3.66838 9.90517 3.67499 9.9002C3.75899 9.83841 3.84299 9.77397 3.92299 9.70952C3.93019 9.70372 3.93886 9.70004 3.94804 9.69886C3.95723 9.69769 3.96655 9.69908 3.97499 9.70288C6.59299 10.8749 9.42832 10.8749 12.0157 9.70288C12.0241 9.69885 12.0335 9.69728 12.0429 9.69834C12.0522 9.6994 12.061 9.70304 12.0683 9.70886C12.1483 9.77397 12.2317 9.83841 12.3163 9.9002C12.323 9.90507 12.3284 9.91151 12.3319 9.91894C12.3355 9.92637 12.3371 9.93457 12.3367 9.9428C12.3363 9.95103 12.3339 9.95903 12.3296 9.96609C12.3254 9.97315 12.3194 9.97905 12.3123 9.98325C11.9137 10.2118 11.499 10.4051 11.0637 10.5659C11.057 10.5684 11.0509 10.5722 11.0458 10.5771C11.0407 10.5821 11.0367 10.588 11.0341 10.5946C11.0316 10.6013 11.0304 10.6083 11.0308 10.6154C11.0312 10.6225 11.0331 10.6294 11.0363 10.6357C11.2763 11.0921 11.551 11.5267 11.853 11.9392C11.8593 11.9477 11.868 11.954 11.878 11.9574C11.8881 11.9607 11.8989 11.9609 11.909 11.9579C13.3452 11.5271 14.6981 10.8575 15.9103 9.97727C15.9162 9.97315 15.9212 9.96782 15.9249 9.96163C15.9286 9.95545 15.9309 9.94855 15.9317 9.9414C16.265 6.55694 15.373 3.6163 13.5657 1.01052C13.5612 1.00205 13.5539 0.995451 13.545 0.991917ZM5.34699 8.15814C4.55899 8.15814 3.90899 7.4479 3.90899 6.57687C3.90899 5.70518 4.54632 4.9956 5.34699 4.9956C6.15366 4.9956 6.79766 5.71116 6.78499 6.57687C6.78499 7.44856 6.14766 8.15814 5.34699 8.15814ZM10.6637 8.15814C9.87499 8.15814 9.22566 7.4479 9.22566 6.57687C9.22566 5.70518 9.86232 4.9956 10.6637 4.9956C11.4703 4.9956 12.1143 5.71116 12.1017 6.57687C12.1017 7.44856 11.471 8.15814 10.6637 8.15814Z" fill="white"/>
</svg>
